# xmcd
#
# Track frame offsets:
#	182
#	12197
#	30057
#	46877
#	56772
#	66970
#	86410
#	108585
#	118512
#	133065
#	144835
#	157782
#	168955
#	177912
#	187752
#	199145
#	210047
#	222055
#
# Disc length: 3143 seconds
#
# Revision: 0
# Processed by: cddbd v1.4PL0 Copyright (c) Steve Scherf et al.
# Submitted via: dBpowerAMP V4.0
#
DISCID=df0c4512
DTITLE=Various Artist - Hometown country christmas cd 2
DYEAR=1994
DGENRE=Country
TTITLE0=Willie Nelson - blue christmas
TTITLE1=Barbara Mandrell - One night a year
TTITLE2=Jean shepard - O come all ye faithful
TTITLE3=Tennessee Ernie ford - god Rest Ye merry Gentlesmen
TTITLE4=Buck Owens - Santa looked alot like daddy
TTITLE5=Lynn anderson - The First Noel
TTITLE6=Janie fricke - It came upon a midnight clear
TTITLE7=Marty Robbins - rudolph the red-nosed reindeer
TTITLE8=Randy Travis - An old time christmas
TTITLE9=Ricky Van Shelton - country christmas
TTITLE10=Barbara Mandrell - christmas at our house
TTITLE11=Oak Ridge boys - Happy Christmas Eve
TTITLE12=The Statler brothers - Christmas country style
TTITLE13=Cristy Lane - O holy night
TTITLE14=Tammy Wynette - lets put christ back into christmas
TTITLE15=Crystal Gayle - Winter Wonderland
TTITLE16=Michael Martin Murphey - Medley: sleigh Ride - jingle bells
TTITLE17=Kenny rogers - christmas in americ
EXTD=
EXTT0=
EXTT1=
EXTT2=
EXTT3=
EXTT4=
EXTT5=
EXTT6=
EXTT7=
EXTT8=
EXTT9=
EXTT10=
EXTT11=
EXTT12=
EXTT13=
EXTT14=
EXTT15=
EXTT16=
EXTT17=
PLAYORDER=
